<?xml version="1.0" standalone="no"?>
<!DOCTYPE svg PUBLIC "-//W3C//DTD SVG 20010904//EN"
 "http://www.w3.org/TR/2001/REC-SVG-20010904/DTD/svg10.dtd">
<svg version="1.0" xmlns="http://www.w3.org/2000/svg"
 width="128.000000pt" height="128.000000pt" viewBox="0 0 128.000000 128.000000"
 preserveAspectRatio="xMidYMid meet">
<metadata>
Created by potrace 1.14, written by Peter Selinger 2001-2017
</metadata>
<g transform="translate(0.000000,128.000000) scale(0.100000,-0.100000)"
fill="#000000" stroke="none">
<path d="M210 1261 c-5 -11 -10 -46 -10 -79 l0 -59 -63 -5 c-74 -6 -101 -21
-122 -65 -13 -28 -15 -85 -13 -388 l3 -355 33 -32 32 -33 182 -2 c100 -2 184
-7 187 -12 5 -8 5 -32 2 -136 -1 -17 -8 -21 -38 -22 -66 -1 -71 -3 -76 -25
-13 -47 -4 -48 313 -48 318 0 330 2 315 50 -7 21 -10 22 -60 26 -16 1 -36 2
-42 3 -9 1 -13 24 -13 81 l0 80 170 0 c191 0 228 9 254 59 14 26 16 82 16 383
-1 268 -4 359 -14 376 -22 41 -66 62 -128 62 l-58 0 0 68 c0 40 -5 73 -12 80
-9 9 -118 12 -430 12 -402 0 -418 -1 -428 -19z"/>
</g>
</svg>
